<svg width="297" height="44" viewBox="0 0 297 44" fill="none" xmlns="http://www.w3.org/2000/svg">
<path fill-rule="evenodd" clip-rule="evenodd" d="M292.896 3.28358H3.28358V40.7164H292.896V3.28358ZM0 0V44H296.179V0H0Z" fill="black"/>
<path d="M269.871 32.8358V9.91043H285.319V13.9067H274.718V19.3694H284.524V23.3657H274.718V28.8395H285.364V32.8358H269.871Z" fill="black"/>
<path d="M249.185 32.8358V9.91043H258.229C259.961 9.91043 261.438 10.2201 262.662 10.8395C263.894 11.4515 264.83 12.3209 265.472 13.4477C266.121 14.5671 266.446 15.8843 266.446 17.3992C266.446 18.9216 266.118 20.2313 265.461 21.3283C264.804 22.4179 263.853 23.2537 262.606 23.8358C261.368 24.4179 259.868 24.7089 258.106 24.7089H252.05V20.8134H257.323C258.248 20.8134 259.017 20.6866 259.629 20.4328C260.241 20.1791 260.696 19.7985 260.994 19.291C261.3 18.7836 261.453 18.153 261.453 17.3992C261.453 16.638 261.3 15.9963 260.994 15.4739C260.696 14.9515 260.237 14.556 259.618 14.2873C259.006 14.0112 258.233 13.8731 257.3 13.8731H254.032V32.8358H249.185ZM261.565 22.403L267.263 32.8358H261.912L256.338 22.403H261.565Z" fill="black"/>
<path d="M229.556 32.8358H224.362L232.276 9.91043H238.522L246.425 32.8358H241.231L235.489 15.1492H235.31L229.556 32.8358ZM229.231 23.8246H241.5V27.6082H229.231V23.8246Z" fill="black"/>
<path d="M207.842 32.8358V9.91043H216.887C218.626 9.91043 220.107 10.2425 221.331 10.9067C222.555 11.5634 223.488 12.4776 224.13 13.6492C224.779 14.8134 225.104 16.1567 225.104 17.6791C225.104 19.2015 224.775 20.5448 224.118 21.7089C223.462 22.8731 222.51 23.7798 221.264 24.4291C220.025 25.0783 218.525 25.403 216.764 25.403H210.999V21.5186H215.98C216.913 21.5186 217.682 21.3582 218.286 21.0373C218.898 20.7089 219.354 20.2574 219.652 19.6828C219.958 19.1007 220.111 18.4328 220.111 17.6791C220.111 16.9179 219.958 16.2537 219.652 15.6865C219.354 15.1119 218.898 14.6679 218.286 14.3545C217.674 14.0336 216.898 13.8731 215.958 13.8731H212.689V32.8358H207.842Z" fill="black"/>
<path d="M203.838 9.91043V32.8358H199.651L189.677 18.4067H189.509V32.8358H184.662V9.91043H188.916L198.812 24.3283H199.013V9.91043H203.838Z" fill="black"/>
<path d="M181.072 21.3731C181.072 23.8731 180.598 26 179.65 27.7537C178.71 29.5074 177.426 30.847 175.799 31.7724C174.18 32.6903 172.359 33.1492 170.337 33.1492C168.299 33.1492 166.471 32.6865 164.852 31.7612C163.232 30.8358 161.952 29.4962 161.012 27.7425C160.072 25.9888 159.602 23.8656 159.602 21.3731C159.602 18.8731 160.072 16.7462 161.012 14.9925C161.952 13.2388 163.232 11.903 164.852 10.985C166.471 10.0597 168.299 9.59698 170.337 9.59698C172.359 9.59698 174.18 10.0597 175.799 10.985C177.426 11.903 178.71 13.2388 179.65 14.9925C180.598 16.7462 181.072 18.8731 181.072 21.3731ZM176.158 21.3731C176.158 19.7537 175.915 18.388 175.43 17.2761C174.952 16.1642 174.277 15.3209 173.404 14.7462C172.531 14.1716 171.508 13.8843 170.337 13.8843C169.165 13.8843 168.143 14.1716 167.27 14.7462C166.396 15.3209 165.717 16.1642 165.232 17.2761C164.755 18.388 164.516 19.7537 164.516 21.3731C164.516 22.9925 164.755 24.3582 165.232 25.4701C165.717 26.5821 166.396 27.4253 167.27 28C168.143 28.5746 169.165 28.8619 170.337 28.8619C171.508 28.8619 172.531 28.5746 173.404 28C174.277 27.4253 174.952 26.5821 175.43 25.4701C175.915 24.3582 176.158 22.9925 176.158 21.3731Z" fill="black"/>
<path d="M139.122 13.9067V9.91043H157.951V13.9067H150.932V32.8358H146.141V13.9067H139.122Z" fill="black"/>
<path d="M120.694 32.8358V9.91043H136.142V13.9067H125.541V19.3694H135.347V23.3657H125.541V28.8395H136.187V32.8358H120.694Z" fill="black"/>
<path d="M101.065 32.8358H95.8713L103.785 9.91043H110.032L117.935 32.8358H112.741L106.998 15.1492H106.819L101.065 32.8358ZM100.741 23.8246H113.009V27.6082H100.741V23.8246Z" fill="black"/>
<path d="M89.0429 17.3209C88.8862 16.7761 88.666 16.2947 88.3824 15.8768C88.0989 15.4515 87.7518 15.0933 87.3414 14.8022C86.9384 14.5037 86.4757 14.2761 85.9533 14.1194C85.4384 13.9627 84.8675 13.8843 84.2407 13.8843C83.069 13.8843 82.0392 14.1753 81.1511 14.7574C80.2705 15.3395 79.5839 16.1865 79.0914 17.2985C78.5989 18.403 78.3526 19.7537 78.3526 21.3507C78.3526 22.9477 78.5951 24.3059 79.0802 25.4253C79.5653 26.5447 80.2518 27.3992 81.1399 27.9888C82.028 28.5709 83.0765 28.8619 84.2854 28.8619C85.3824 28.8619 86.319 28.6679 87.0951 28.2798C87.8787 27.8843 88.4757 27.3283 88.8862 26.6119C89.3041 25.8955 89.513 25.0485 89.513 24.0709L90.4981 24.2164H84.5877V20.5671H94.1809V23.4552C94.1809 25.4701 93.7556 27.2015 92.9048 28.6492C92.0541 30.0895 90.8824 31.2015 89.3899 31.985C87.8974 32.7612 86.1884 33.1492 84.263 33.1492C82.1138 33.1492 80.2257 32.6753 78.5989 31.7276C76.972 30.7724 75.7033 29.4179 74.7929 27.6641C73.8899 25.903 73.4384 23.8134 73.4384 21.3955C73.4384 19.5373 73.7071 17.8806 74.2444 16.4253C74.7892 14.9627 75.5504 13.7239 76.528 12.7089C77.5056 11.694 78.6436 10.9216 79.9421 10.3918C81.2407 9.86191 82.6474 9.59698 84.1623 9.59698C85.4608 9.59698 86.6698 9.78728 87.7892 10.1679C88.9086 10.541 89.9011 11.0709 90.7668 11.7574C91.6399 12.444 92.3526 13.2612 92.9048 14.2089C93.4571 15.1492 93.8116 16.1865 93.9683 17.3209H89.0429Z" fill="black"/>
<path d="M65.0625 17.3209C64.9058 16.7761 64.6856 16.2947 64.402 15.8768C64.1185 15.4515 63.7714 15.0933 63.361 14.8022C62.958 14.5037 62.4953 14.2761 61.9729 14.1194C61.458 13.9627 60.8871 13.8843 60.2602 13.8843C59.0886 13.8843 58.0588 14.1753 57.1707 14.7574C56.2901 15.3395 55.6035 16.1865 55.111 17.2985C54.6185 18.403 54.3722 19.7537 54.3722 21.3507C54.3722 22.9477 54.6147 24.3059 55.0998 25.4253C55.5849 26.5447 56.2714 27.3992 57.1595 27.9888C58.0476 28.5709 59.0961 28.8619 60.305 28.8619C61.402 28.8619 62.3386 28.6679 63.1147 28.2798C63.8983 27.8843 64.4953 27.3283 64.9058 26.6119C65.3237 25.8955 65.5326 25.0485 65.5326 24.0709L66.5177 24.2164H60.6073V20.5671H70.2005V23.4552C70.2005 25.4701 69.7752 27.2015 68.9244 28.6492C68.0737 30.0895 66.902 31.2015 65.4095 31.985C63.917 32.7612 62.208 33.1492 60.2826 33.1492C58.1334 33.1492 56.2453 32.6753 54.6185 31.7276C52.9916 30.7724 51.7229 29.4179 50.8125 27.6641C49.9095 25.903 49.458 23.8134 49.458 21.3955C49.458 19.5373 49.7267 17.8806 50.264 16.4253C50.8088 14.9627 51.5699 13.7239 52.5476 12.7089C53.5252 11.694 54.6632 10.9216 55.9617 10.3918C57.2602 9.86191 58.667 9.59698 60.1819 9.59698C61.4804 9.59698 62.6894 9.78728 63.8088 10.1679C64.9282 10.541 65.9207 11.0709 66.7864 11.7574C67.6595 12.444 68.3722 13.2612 68.9244 14.2089C69.4767 15.1492 69.8311 16.1865 69.9879 17.3209H65.0625Z" fill="black"/>
<path d="M30.5597 32.8358V9.91043H46.0075V13.9067H35.4067V19.3694H45.2127V23.3657H35.4067V28.8395H46.0522V32.8358H30.5597Z" fill="black"/>
<path d="M9.87317 32.8358V9.91043H18.9179C20.6493 9.91043 22.1269 10.2201 23.3508 10.8395C24.5821 11.4515 25.5187 12.3209 26.1605 13.4477C26.8097 14.5671 27.1344 15.8843 27.1344 17.3992C27.1344 18.9216 26.806 20.2313 26.1493 21.3283C25.4926 22.4179 24.5411 23.2537 23.2948 23.8358C22.056 24.4179 20.556 24.7089 18.7948 24.7089H12.7388V20.8134H18.0112C18.9366 20.8134 19.7053 20.6866 20.3172 20.4328C20.9291 20.1791 21.3844 19.7985 21.6829 19.291C21.9888 18.7836 22.1418 18.153 22.1418 17.3992C22.1418 16.638 21.9888 15.9963 21.6829 15.4739C21.3844 14.9515 20.9254 14.556 20.306 14.2873C19.6941 14.0112 18.9217 13.8731 17.9888 13.8731H14.7202V32.8358H9.87317ZM22.2538 22.403L27.9515 32.8358H22.6008L17.0262 22.403H22.2538Z" fill="black"/>
</svg>
